<?xml version="1.0" encoding="UTF-8"?>


<svg
   width="264.58334mm"
   height="41.781376mm"
   viewBox="0 0 264.58334 41.781376"
   version="1.1"
   id="svg1"
   inkscape:version="1.3.2 (091e20e, 2023-11-25, custom)"
   sodipodi:docname="Superbank.svg"
   xmlns:inkscape="http://www.inkscape.org/namespaces/inkscape"
   xmlns:sodipodi="http://sodipodi.sourceforge.net/DTD/sodipodi-0.dtd"
   xmlns="http://www.w3.org/2000/svg"
   xmlns:svg="http://www.w3.org/2000/svg">
  <sodipodi:namedview
     id="namedview1"
     pagecolor="#ffffff"
     bordercolor="#000000"
     borderopacity="0.25"
     inkscape:showpageshadow="2"
     inkscape:pageopacity="0.0"
     inkscape:pagecheckerboard="0"
     inkscape:deskcolor="#d1d1d1"
     inkscape:document-units="mm"
     inkscape:zoom="0.75455247"
     inkscape:cx="-230.60027"
     inkscape:cy="306.80438"
     inkscape:window-width="1920"
     inkscape:window-height="1094"
     inkscape:window-x="-11"
     inkscape:window-y="-11"
     inkscape:window-maximized="1"
     inkscape:current-layer="layer1" />
  <defs
     id="defs1">
    <clipPath
       id="clipPath3793"
       clipPathUnits="userSpaceOnUse">
      <path
         inkscape:connector-curvature="0"
         id="path3791"
         d="M 0,0 H 595.276 V 841.89 H 0 Z" />
    </clipPath>
  </defs>
  <g
     inkscape:label="Layer 1"
     inkscape:groupmode="layer"
     id="layer1"
     transform="translate(-165.89375,-179.38741)">
    <g
       clip-path="url(#clipPath3793)"
       id="g3789"
       transform="matrix(2.0225208,0,0,-2.0225208,112.38452,1809.3171)">
      <g
         transform="translate(26.4567,797.1953)"
         id="g3795">
        <path
           inkscape:connector-curvature="0"
           id="path3797"
           style="fill:#afee00;fill-opacity:1;fill-rule:nonzero;stroke:none"
           d="M 0,0 C 0.449,1.582 0.927,3.144 1.942,4.49 3.736,6.872 6.106,8.23 9.075,8.56 8.914,8.49 8.756,8.413 8.591,8.353 8.391,8.282 8.182,8.234 7.983,8.162 2.437,6.133 2.394,-0.421 5.634,-3.126 c 1.441,-1.203 3.13,-1.65 4.964,-1.683 0.745,-0.013 1.508,0.06 2.232,-0.074 1.446,-0.269 2.328,-1.257 2.518,-2.633 0.209,-1.514 -0.457,-2.934 -1.749,-3.666 -1.654,-0.938 -3.473,-0.899 -5.222,-0.567 -4.369,0.83 -7.466,4.115 -8.232,8.501 C 0.123,-3.122 0.05,-3.005 0,-2.883 Z" />
      </g>
      <g
         transform="translate(83.2043,792.1903)"
         id="g3799">
        <path
           inkscape:connector-curvature="0"
           id="path3801"
           style="fill:#afee00;fill-opacity:1;fill-rule:nonzero;stroke:none"
           d="m 0,0 v -5.192 h -2.73 v 1.071 c 0,1.681 -0.007,3.362 0.009,5.042 0.002,0.252 0.026,0.586 0.18,0.741 0.806,0.806 1.656,1.567 2.487,2.341 C -0.024,3.805 0.02,3.528 0.061,3.25 0.267,1.874 1.128,1.042 2.418,0.973 3.727,0.903 4.635,1.626 4.969,3.005 5.314,4.424 4.805,5.804 3.71,6.426 2.73,6.981 1.385,6.702 0.377,5.68 -1.441,3.838 -3.21,1.948 -5.048,0.127 c -1.669,-1.652 -3.697,-2.029 -5.91,-1.374 -1.726,0.511 -2.698,1.781 -2.804,3.514 -0.131,2.148 -0.031,4.309 -0.031,6.516 h 2.691 V 6.588 c 0,-1.04 0.013,-2.081 -0.004,-3.121 -0.016,-0.962 0.149,-1.851 1.136,-2.266 1.03,-0.434 1.941,-0.076 2.7,0.656 1.709,1.647 3.389,3.325 5.094,4.978 0.458,0.445 0.933,0.88 1.446,1.258 C 1.137,9.471 3.663,9.591 5.501,8.421 7.215,7.329 8.146,4.942 7.725,2.715 7.262,0.267 5.998,-1.101 3.742,-1.468 2.344,-1.696 1.102,-1.322 0,0" />
      </g>
      <g
         transform="translate(45.5494,801.3142)"
         id="g3803">
        <path
           inkscape:connector-curvature="0"
           id="path3805"
           style="fill:#afee00;fill-opacity:1;fill-rule:nonzero;stroke:none"
           d="M 0,0 V 4.576 C 1.498,3.081 2.841,1.739 4.186,0.399 5.545,-0.956 6.906,-2.309 8.218,-3.615 5.832,-5.99 3.481,-8.331 1.297,-10.506 c -0.481,1.126 -0.854,2.509 -1.602,3.643 -1.368,2.072 -3.538,2.798 -5.94,2.893 -0.719,0.028 -1.441,0 -2.16,0.017 -1.128,0.027 -1.932,0.791 -1.998,1.878 -0.064,1.065 0.583,1.854 1.743,1.991 0.791,0.094 1.596,0.077 2.395,0.081 C -4.216,0.007 -2.166,0 0,0" />
      </g>
      <g
         transform="translate(111.8863,805.3066)"
         id="g3807">
        <path
           inkscape:connector-curvature="0"
           id="path3809"
           style="fill:#afee00;fill-opacity:1;fill-rule:nonzero;stroke:none"
           d="m 0,0 h 2.589 v -5.175 c 0.144,0.027 0.231,0.016 0.275,0.055 2.48,2.134 5.936,1.311 7.115,-1.715 0.529,-1.357 0.562,-2.768 0.181,-4.162 -0.657,-2.404 -2.964,-3.904 -5.518,-3.638 -2.665,0.277 -4.57,2.054 -4.662,4.621 -0.118,3.249 -0.054,6.505 -0.065,9.759 0,0.072 0.047,0.145 0.085,0.255 m 7.647,-9.214 c 0.007,1.919 -1.331,3.175 -3.001,2.817 -1.181,-0.253 -1.91,-1.116 -2,-2.367 -0.115,-1.592 0.516,-2.785 1.692,-3.202 1.724,-0.612 3.301,0.699 3.309,2.752" />
      </g>
      <g
         transform="translate(134.0907,790.9939)"
         id="g3811">
        <path
           inkscape:connector-curvature="0"
           id="path3813"
           style="fill:#afee00;fill-opacity:1;fill-rule:nonzero;stroke:none"
           d="m 0,0 h -2.552 c -0.03,0.427 -0.059,0.831 -0.099,1.402 -1.184,-1.562 -2.665,-1.914 -4.338,-1.5 -1.922,0.475 -3.24,2.116 -3.379,4.265 -0.057,0.889 -0.014,1.83 0.217,2.684 0.692,2.556 3.108,3.909 6.033,3.493 C -1.662,9.995 -0.011,8.028 -0.001,5.43 0.005,3.647 0,1.864 0,0 m -2.573,5.072 c 0,0.783 -0.359,1.766 -0.881,2.285 -0.73,0.725 -1.73,0.778 -2.703,0.381 C -7.11,7.349 -7.701,6.327 -7.699,5.069 -7.696,3.75 -7.11,2.738 -6.119,2.344 c 1.768,-0.703 3.546,0.627 3.546,2.728" />
      </g>
      <g
         transform="translate(145.5294,791.0029)"
         id="g3815">
        <path
           inkscape:connector-curvature="0"
           id="path3817"
           style="fill:#afee00;fill-opacity:1;fill-rule:nonzero;stroke:none"
           d="m 0,0 h -2.741 c 0,0.695 10e-4,1.354 0,2.011 C -2.742,3.344 -2.718,4.678 -2.752,6.01 -2.78,7.142 -3.53,7.845 -4.633,7.857 -5.82,7.869 -6.604,7.217 -6.641,6.059 -6.695,4.381 -6.669,2.701 -6.676,1.022 c -10e-4,-0.315 0,-0.63 0,-1.003 h -2.605 c -0.029,0.058 -0.093,0.126 -0.093,0.194 -0.004,2.079 -0.071,4.16 0.02,6.235 0.095,2.18 1.698,3.7 3.92,3.904 2.788,0.255 4.667,-0.829 5.267,-3.062 C -0.065,6.909 -0.01,6.503 -0.007,6.108 0.008,4.091 0,2.073 0,0" />
      </g>
      <g
         transform="translate(76.129,795.3729)"
         id="g3819">
        <path
           inkscape:connector-curvature="0"
           id="path3821"
           style="fill:#afee00;fill-opacity:1;fill-rule:nonzero;stroke:none"
           d="M 0,0 V 5.594 H 2.68 C 2.68,4.594 2.665,2.51 2.665,2.51 2.665,2.51 0.091,-0.061 0,0" />
      </g>
      <g
         transform="translate(153.7113,796.3447)"
         id="g3823">
        <path
           inkscape:connector-curvature="0"
           id="path3825"
           style="fill:#afee00;fill-opacity:1;fill-rule:nonzero;stroke:none"
           d="M 0,0 C 0.814,0.564 2.212,3.025 3.337,4.704 2.792,4.704 2.315,4.695 1.886,4.696 V 4.697 H 0.389 c 0,0 -0.299,-0.378 -0.428,-0.535 C -0.593,3.482 -1.058,2.73 -1.559,2.007 -1.754,1.727 -1.984,1.425 -2.36,1.425 H -3.427 V 8.936 H -6.07 V -5.355 h 2.668 v 4.177 c 0.002,0.004 0.005,0.007 0.007,0.01 h 0.656 c 0.7,0 1.047,-0.572 1.23,-0.871 0.585,-0.954 2.023,-3.318 2.023,-3.318 0,0 1.95,-0.02 3.05,-0.02 C 2.345,-3.434 0.708,-0.304 0,0" />
      </g>
      <g
         transform="translate(110.2312,801.0472)"
         id="g3827">
        <path
           inkscape:connector-curvature="0"
           id="path3829"
           style="fill:#afee00;fill-opacity:1;fill-rule:nonzero;stroke:none"
           d="M 0,0 C 0,0 -0.971,0.477 -2.508,0.339 -2.587,0.332 -2.667,0.321 -2.746,0.313 -4.714,0.115 -6.056,-0.962 -6.222,-2.914 -6.419,-5.239 -6.321,-7.59 -6.346,-9.929 c -0.001,-0.038 0.067,-0.076 0.088,-0.099 h 2.598 c 0,0.638 0,1.221 0.001,1.803 0.002,1.306 -0.035,2.613 0.018,3.916 0.065,1.613 0.925,2.353 2.56,2.16 C -0.743,-2.189 0,-2.346 0,-2.346 Z" />
      </g>
      <g
         transform="translate(67.7287,795.1743)"
         id="g3831">
        <path
           inkscape:connector-curvature="0"
           id="path3833"
           style="fill:#afee00;fill-opacity:1;fill-rule:nonzero;stroke:none"
           d="m 0,0 c -0.491,1.268 -1.633,1.669 -2.808,1.999 -0.639,0.179 -1.295,0.312 -1.913,0.546 -0.218,0.083 -0.487,0.415 -0.473,0.616 0.014,0.212 0.304,0.51 0.533,0.58 0.395,0.121 0.861,0.17 1.275,0.163 1.448,-0.027 2.009,-0.274 2.974,-0.538 0,0.484 0.031,0.987 0.003,1.485 v 0.728 c 0,0 -0.419,0.207 -0.521,0.238 -1.609,0.48 -3.245,0.611 -4.876,0.105 -1.341,-0.417 -2.098,-1.39 -2.141,-2.672 -0.048,-1.465 0.568,-2.454 1.941,-2.971 0.718,-0.27 1.487,-0.405 2.213,-0.657 0.532,-0.183 1.409,-0.123 1.268,-1.002 -0.131,-0.82 -0.968,-0.765 -1.559,-0.738 -1.505,0.068 -2.578,0.376 -2.933,0.535 -0.317,0.142 -0.625,0.29 -0.688,0.321 v -2.39 c 0.063,-0.048 0.396,-0.207 0.618,-0.285 1.663,-0.589 3.327,-0.761 5.001,-0.245 C -0.209,-3.603 0.686,-1.771 0,0" />
      </g>
      <g
         transform="translate(102.2161,795.1161)"
         id="g3835">
        <path
           inkscape:connector-curvature="0"
           id="path3837"
           style="fill:#afee00;fill-opacity:1;fill-rule:nonzero;stroke:none"
           d="m 0,0 c 0,0.54 0.002,0.963 0,1.386 -0.018,3.504 -2.714,5.537 -6.151,4.766 -4.351,-0.975 -4.465,-6.726 -2.38,-8.966 1.902,-2.046 5.699,-1.988 7.828,-0.858 0.081,0.043 0.348,0.232 0.348,0.232 0,0 -0.009,1.864 -0.009,2.208 -0.333,-0.133 -0.524,-0.212 -0.717,-0.285 -1.268,-0.479 -2.561,-0.707 -3.914,-0.418 -1.124,0.24 -1.796,0.865 -1.998,1.935 h 3.436 z m -7.011,2.002 c -0.021,1.195 0.956,2.029 2.27,1.974 1.261,-0.053 2.076,-0.846 1.985,-1.974 z" />
      </g>
    </g>
  </g>
</svg>
